<svg width="90" height="90" viewBox="0 0 90 90" xmlns="http://www.w3.org/2000/svg"><title>Search_icon_green</title><path d="M35.497 62.289c-14.65-.096-26.494-12.101-26.403-26.762C9.189 20.956 21.106 9.105 35.66 9.105h.175c7.097.042 13.754 2.852 18.744 7.91 4.984 5.051 7.707 11.75 7.66 18.852-.043 7.07-2.83 13.715-7.846 18.698-5.011 4.983-11.662 7.724-18.722 7.724h-.175zM88.77 75.85l-.542-.547-21.7-21.715a35.552 35.552 0 0 0 4.81-17.663C71.465 16.207 55.598.127 35.895 0h-.234C16.07 0 .123 15.835.001 35.468-.127 55.181 15.74 71.266 35.438 71.393h.234c6.55 0 12.686-1.774 17.963-4.865l21.679 21.7h.005l.541.54a4.192 4.192 0 0 0 5.935 0l6.975-6.979a4.199 4.199 0 0 0 0-5.939z" fill="#4BA82E" fill-rule="evenodd"/></svg>