<svg width="90" height="90" viewBox="0 0 90 90" xmlns="http://www.w3.org/2000/svg"><title>Tool_menu_green</title><g fill="#4BA82E" fill-rule="evenodd"><path d="M2 21.496h17.496a2 2 0 0 0 2-2V2a2 2 0 0 0-2-2H2a2 2 0 0 0-2 2v17.496a2 2 0 0 0 2 2zM2 55.625h17.496a2 2 0 0 0 2-2V36.129a2 2 0 0 0-2-2H2a2 2 0 0 0-2 2v17.496a2 2 0 0 0 2 2zM2 89.754h17.496a2 2 0 0 0 2-2V70.258a2 2 0 0 0-2-2H2a2 2 0 0 0-2 2v17.496a2 2 0 0 0 2 2zM36.13 21.496h17.495a2 2 0 0 0 2-2V2a2 2 0 0 0-2-2H36.129a2 2 0 0 0-2 2v17.496a2 2 0 0 0 2 2zM36.13 55.625h17.495a2 2 0 0 0 2-2V36.129a2 2 0 0 0-2-2H36.129a2 2 0 0 0-2 2v17.496a2 2 0 0 0 2 2zM36.13 89.754h17.495a2 2 0 0 0 2-2V70.258a2 2 0 0 0-2-2H36.129a2 2 0 0 0-2 2v17.496a2 2 0 0 0 2 2zM70.258 21.496h17.496a2 2 0 0 0 2-2V2a2 2 0 0 0-2-2H70.258a2 2 0 0 0-2 2v17.496a2 2 0 0 0 2 2zM70.258 55.625h17.496a2 2 0 0 0 2-2V36.129a2 2 0 0 0-2-2H70.258a2 2 0 0 0-2 2v17.496a2 2 0 0 0 2 2zM70.258 89.754h17.496a2 2 0 0 0 2-2V70.258a2 2 0 0 0-2-2H70.258a2 2 0 0 0-2 2v17.496a2 2 0 0 0 2 2z"/></g></svg>