<svg xmlns="http://www.w3.org/2000/svg" xmlns:xlink="http://www.w3.org/1999/xlink" width="19" height="17" viewBox="0 0 19 17"><defs><path id="a" d="M717.26 2737.47l14.19-5.44a.4.4 0 0 1 .54.46l-2.54 12.19a.4.4 0 0 1-.64.24l-3.48-2.5a.58.58 0 0 0-.7.01l-1.92 1.56a.4.4 0 0 1-.65-.19l-1.34-4.28-3.45-1.29a.4.4 0 0 1 0-.76zm4.29 2.13l.73 2.55c.05.18.31.16.34-.02l.19-1.4c.03-.27.16-.51.36-.7l5.57-5.15c.1-.1-.02-.26-.14-.19l-6.76 4.14a.68.68 0 0 0-.3.77z"/></defs><use fill="#2f2f2f" xlink:href="#a" transform="translate(-715 -2730)"/></svg>