<svg xmlns="http://www.w3.org/2000/svg" xmlns:xlink="http://www.w3.org/1999/xlink" width="17" height="17" viewBox="0 0 17 17"><defs><path id="a" d="M768 2741.07a3.93 3.93 0 0 1-5.99 3.35 6.48 6.48 0 0 1-7.43-7.43 3.91 3.91 0 0 1 3.35-5.99c.75 0 1.46.21 2.06.58a6.5 6.5 0 0 1 7.43 7.43c.37.6.58 1.3.58 2.06zm-3.5-1.45c0-.42-.08-.77-.24-1.05a2 2 0 0 0-.67-.71 4.2 4.2 0 0 0-1.02-.47c-.4-.13-.85-.25-1.34-.36l-.85-.2a2.65 2.65 0 0 1-.5-.2c-.16-.09-.29-.19-.38-.3a.62.62 0 0 1-.14-.4c0-.25.14-.46.41-.65.28-.18.64-.27 1.09-.27.49 0 .84.08 1.05.25.22.17.4.4.57.7.12.22.24.38.35.47.1.1.27.15.48.15.22 0 .42-.08.57-.24a.78.78 0 0 0 .24-.55c0-.22-.07-.44-.19-.67a2.13 2.13 0 0 0-.57-.65c-.26-.2-.59-.37-.98-.5-.4-.12-.86-.19-1.4-.19a5 5 0 0 0-1.76.29c-.5.18-.89.45-1.15.8-.27.35-.4.76-.4 1.2 0 .48.13.88.38 1.2.25.32.59.57 1.01.75.43.19.96.35 1.58.48.47.1.85.2 1.12.28.28.1.5.22.68.38.17.16.25.37.25.63 0 .33-.15.6-.48.83-.32.22-.74.33-1.25.33a2.1 2.1 0 0 1-.91-.16c-.23-.11-.41-.26-.54-.42a3.16 3.16 0 0 1-.36-.64c-.09-.22-.2-.39-.33-.5a.74.74 0 0 0-.5-.18.83.83 0 0 0-.59.22.71.71 0 0 0-.23.53c0 .35.13.71.38 1.08.25.37.58.66.98.88.56.3 1.28.45 2.14.45a4.8 4.8 0 0 0 1.88-.33 2.7 2.7 0 0 0 1.2-.93c.28-.4.42-.84.42-1.33z"/></defs><use fill="#2f2f2f" xlink:href="#a" transform="translate(-752 -2729)"/></svg>