<svg xmlns="http://www.w3.org/2000/svg" xmlns:xlink="http://www.w3.org/1999/xlink" width="20" height="13" viewBox="0 0 20 13"><defs><path id="a" d="M802.3 2741.02c-.34-.4-.74-.77-1.12-1.12a34.7 34.7 0 0 1-.41-.39c-.4-.37-.4-.5-.1-.93l.66-.86.6-.78.04-.06c.37-.5.76-1.03.97-1.66.05-.17.11-.41-.02-.62-.13-.2-.38-.26-.55-.3a1.57 1.57 0 0 0-.26-.01h-2.48c-.37 0-.62.17-.77.52-.14.34-.29.7-.46 1.03a8.48 8.48 0 0 1-1.4 2.1l-.03.04c-.08.07-.16.16-.22.16h-.03c-.13-.05-.22-.36-.22-.5V2734.83c-.06-.45-.2-.73-.73-.83h-2.6c-.41 0-.64.16-.86.41-.06.07-.18.2-.12.37.06.17.26.2.32.22.32.06.5.25.56.58.08.58.1 1.2.03 1.94-.02.21-.05.37-.11.51-.02.03-.07.14-.12.14-.01 0-.06-.01-.14-.07-.2-.13-.35-.32-.52-.55-.57-.8-1.06-1.67-1.48-2.67-.15-.37-.44-.58-.81-.58a75.93 75.93 0 0 0-2.23 0c-.3 0-.5.1-.61.26-.11.17-.1.39.02.65a26.47 26.47 0 0 0 2.9 5.03c.7.94 1.42 1.59 2.25 2.04a5.95 5.95 0 0 0 3.36.71c.66-.03.9-.26.93-.88.01-.32.05-.66.21-.94.1-.18.2-.18.23-.18.06 0 .13.03.21.08.14.09.27.2.37.32l.28.3.63.67c.48.47 1 .68 1.6.63h2.28a.66.66 0 0 0 .53-.33.86.86 0 0 0 0-.84 4.47 4.47 0 0 0-.58-.8z"/></defs><use fill="#2f2f2f" xlink:href="#a" transform="translate(-785 -2732)"/></svg>