<svg xmlns="http://www.w3.org/2000/svg" xmlns:xlink="http://www.w3.org/1999/xlink" width="17" height="19" viewBox="0 0 17 19"><defs><path id="a" d="M243.86 19.75l-.01.08c-.72 3.08-5.74 7.81-5.95 8.02a.61.61 0 0 1-.4.15.55.55 0 0 1-.39-.15c-.2-.2-5.25-4.94-5.97-8.1l-.01-.09A6.46 6.46 0 0 1 237.5 12a6.44 6.44 0 0 1 6.35 7.75zm-6.37-6.63a5.32 5.32 0 0 0-5.24 6.34l.01.06c.54 2.35 4.05 5.96 5.25 7.13 1.2-1.17 4.7-4.78 5.22-7.07v-.04a5.33 5.33 0 0 0-5.24-6.42zm.02 6.75c-1.2 0-2.18-.97-2.18-2.14 0-1.17.97-2.13 2.18-2.13 1.2 0 2.18.95 2.18 2.13 0 1.19-.99 2.14-2.18 2.14zm0-3.16c-.58 0-1.04.46-1.04 1.02 0 .57.46 1.02 1.04 1.02.57 0 1.04-.45 1.04-1.02 0-.56-.47-1.02-1.04-1.02z"/></defs><use fill="#fff" xlink:href="#a" transform="translate(-229 -10)"/></svg>