<svg xmlns="http://www.w3.org/2000/svg" xmlns:xlink="http://www.w3.org/1999/xlink" width="24" height="15" viewBox="0 0 24 15"><defs><path id="a" d="M1262 24.96c0 .56-.46 1.01-1.02 1.02l-17.94.02a1.02 1.02 0 0 1-1.03-1.01l-.01-9.95a1.02 1.02 0 0 1 1.02-1.01l17.94-.03c.57 0 1.03.45 1.03 1.01zm-17.85-9.93l7.85 5.36 7.84-5.38zm11.07 5.67c.18-.22.5-.26.72-.1l5.04 3.86-.02-8.99-8.67 5.95a.52.52 0 0 1-.58 0l-8.68-5.92v8.96l5.04-3.85a.52.52 0 0 1 .72.09.5.5 0 0 1-.09.7l-4.67 3.59 15.93-.02-4.65-3.56a.5.5 0 0 1-.09-.71z"/></defs><use fill="#fff" xlink:href="#a" transform="translate(-1240 -12)"/></svg>