<svg xmlns="http://www.w3.org/2000/svg" xmlns:xlink="http://www.w3.org/1999/xlink" width="22" height="22" viewBox="0 0 22 22"><defs><path id="a" d="M1348.7 198.72a.97.97 0 0 1-1.4-.03l-4.47-4.74a7.35 7.35 0 0 1-4.3 1.4 7.6 7.6 0 0 1-7.53-7.68 7.6 7.6 0 0 1 7.52-7.67 7.6 7.6 0 0 1 7.53 7.67c0 1.81-.63 3.55-1.77 4.93l4.44 4.7c.37.4.36 1.04-.03 1.42zm-15.74-11.05c0 3.13 2.5 5.67 5.56 5.67a5.62 5.62 0 0 0 5.57-5.67c0-3.13-2.5-5.67-5.57-5.67a5.62 5.62 0 0 0-5.56 5.67z"/><path id="b" d="M1338.5 184a3.5 3.5 0 1 1 0 7 3.5 3.5 0 0 1 0-7z"/></defs><use fill="#035bd7" xlink:href="#a" transform="translate(-1329 -178)"/><use fill="#035bd7" xlink:href="#b" transform="translate(-1329 -178)"/></svg>