<svg xmlns="http://www.w3.org/2000/svg" xmlns:xlink="http://www.w3.org/1999/xlink" width="33" height="29" viewBox="0 0 33 29"><defs><path id="a" d="M1239.85 78.07l-2.94 9.25c-.48 1.2-1.09 1.4-2.09 1.4h-16.53l-.27-.06-.41 1.91h19.44c.5 0 .9.42.9.93s-.4.93-.9.93h-20.58a.9.9 0 0 1-.7-.35.94.94 0 0 1-.18-.78l.92-4.25-.04-.2-1.57-8.06-1.13-4.93h-1.88c-.5 0-.91-.42-.91-.93s.4-.93.9-.93h2.61c.42 0 .79.3.88.72l.7 3.08.4-.09h21.77c1 0 2.12.7 1.61 2.36zm-21.56 16.22c1 0 1.81.83 1.81 1.85 0 1.03-.81 1.86-1.81 1.86s-1.82-.83-1.82-1.86c0-1.02.82-1.85 1.82-1.85zm16.32 0c1 0 1.82.83 1.82 1.85 0 1.03-.82 1.86-1.82 1.86s-1.81-.83-1.81-1.86c0-1.02.81-1.85 1.81-1.85z"/></defs><use fill="#8d6207" xlink:href="#a" transform="translate(-1209 -70)"/></svg>