<svg xmlns="http://www.w3.org/2000/svg" xmlns:xlink="http://www.w3.org/1999/xlink" width="22" height="22" viewBox="0 0 22 22"><defs><path id="a" d="M1068 1839.67a5.33 5.33 0 0 1-8.12 4.54 8.81 8.81 0 0 1-10.08-10.08 5.33 5.33 0 0 1 7.33-7.33 8.81 8.81 0 0 1 10.08 10.08c.5.8.79 1.77.79 2.8zm-4.75-1.98c0-.56-.11-1.03-.33-1.42a2.7 2.7 0 0 0-.9-.96 5.7 5.7 0 0 0-1.4-.64 19 19 0 0 0-1.8-.48c-.54-.13-.92-.22-1.15-.29a3.6 3.6 0 0 1-.68-.27c-.23-.1-.4-.24-.52-.4a.84.84 0 0 1-.19-.54c0-.34.18-.63.55-.88.37-.24.87-.37 1.48-.37.66 0 1.14.12 1.43.34.3.23.55.55.76.96.17.3.33.5.48.63.15.14.37.2.65.2.31 0 .58-.1.78-.32.21-.22.32-.47.32-.75 0-.3-.08-.6-.25-.9-.16-.32-.42-.61-.78-.9-.35-.27-.8-.5-1.33-.67a6.35 6.35 0 0 0-1.9-.25 6.8 6.8 0 0 0-2.39.38c-.68.26-1.2.62-1.56 1.1a2.64 2.64 0 0 0-.54 1.63c0 .64.17 1.18.51 1.62.34.43.8.77 1.38 1.02.58.25 1.3.47 2.15.65.63.14 1.14.26 1.52.38.37.12.68.3.91.52.23.22.35.5.35.85 0 .45-.21.82-.65 1.12-.44.3-1 .46-1.71.46-.52 0-.93-.08-1.24-.23a1.92 1.92 0 0 1-.72-.57 4.28 4.28 0 0 1-.48-.87c-.13-.3-.28-.52-.46-.68a1 1 0 0 0-.67-.23c-.32 0-.6.1-.8.3-.2.2-.32.44-.32.72 0 .47.18.96.52 1.46s.78.9 1.32 1.19c.77.41 1.74.62 2.91.62.98 0 1.83-.15 2.55-.45.71-.3 1.26-.72 1.63-1.26a3.1 3.1 0 0 0 .57-1.82z"/></defs><use fill="#8d6207" xlink:href="#a" transform="translate(-1047 -1824)"/></svg>