<svg xmlns="http://www.w3.org/2000/svg" xmlns:xlink="http://www.w3.org/1999/xlink" width="19" height="19" viewBox="0 0 19 19"><defs><path id="a" d="M1146 23.51a4.49 4.49 0 0 1-6.84 3.82 7.41 7.41 0 0 1-8.5-8.49 4.49 4.49 0 0 1 6.17-6.17 7.42 7.42 0 0 1 8.5 8.5c.43.67.67 1.48.67 2.34zm-4-1.66c0-.47-.1-.87-.28-1.2-.18-.33-.43-.6-.76-.81a4.8 4.8 0 0 0-1.17-.54c-.46-.15-.97-.28-1.53-.4l-.96-.25c-.2-.05-.39-.12-.57-.22-.2-.1-.34-.2-.44-.34a.7.7 0 0 1-.16-.46c0-.28.15-.53.47-.74.3-.2.72-.3 1.24-.3.56-.01.96.09 1.2.28.25.19.47.46.65.8.14.25.27.43.4.54.12.12.3.17.55.17.26 0 .48-.1.66-.28a.9.9 0 0 0 .26-.63c0-.24-.07-.5-.2-.76a2.43 2.43 0 0 0-.66-.75c-.3-.23-.68-.42-1.13-.56a5.35 5.35 0 0 0-1.6-.22c-.76 0-1.43.11-2 .32-.58.22-1.02.53-1.32.93-.3.4-.46.86-.46 1.37 0 .54.15 1 .44 1.37.28.36.67.65 1.16.86.49.2 1.09.39 1.8.55.54.1.97.22 1.28.32.32.1.58.24.77.43.2.18.3.42.3.72 0 .38-.18.69-.55.94-.37.25-.85.38-1.44.38a2.4 2.4 0 0 1-1.04-.19 1.62 1.62 0 0 1-.61-.48 3.6 3.6 0 0 1-.4-.73 1.5 1.5 0 0 0-.4-.57.84.84 0 0 0-.56-.2c-.27 0-.5.09-.67.25a.82.82 0 0 0-.27.61c0 .4.15.81.44 1.23.28.42.65.75 1.11 1 .65.35 1.47.53 2.45.53.83 0 1.54-.13 2.15-.38.6-.26 1.06-.61 1.37-1.06.32-.46.48-.97.48-1.53z"/></defs><use fill="#fff" xlink:href="#a" transform="translate(-1128 -10)"/></svg>