<svg xmlns="http://www.w3.org/2000/svg" xmlns:xlink="http://www.w3.org/1999/xlink" width="20" height="18" viewBox="0 0 20 18"><defs><path id="a" d="M1159.28 18.9l15.13-5.87c.32-.12.65.16.58.5l-2.71 13.12a.43.43 0 0 1-.69.27l-3.7-2.7a.61.61 0 0 0-.75.01l-2.05 1.69c-.24.2-.6.08-.7-.21l-1.42-4.61-3.69-1.39a.44.44 0 0 1 0-.81zm4.57 2.28l.78 2.75c.05.2.34.18.36-.03l.2-1.5c.04-.29.18-.55.39-.75l5.94-5.55c.11-.1-.02-.28-.15-.2l-7.2 4.46c-.28.17-.41.5-.32.82z"/></defs><use fill="#fff" xlink:href="#a" transform="translate(-1157 -11)"/></svg>