<svg xmlns="http://www.w3.org/2000/svg" xmlns:xlink="http://www.w3.org/1999/xlink" width="24" height="21" viewBox="0 0 24 21"><defs><path id="a" d="M948.35 1834.16l18.91-7.12c.4-.16.82.19.73.6l-3.4 15.94a.55.55 0 0 1-.85.32l-4.63-3.29a.78.78 0 0 0-.93.03l-2.57 2.04c-.3.24-.75.11-.86-.25l-1.79-5.6-4.6-1.68a.53.53 0 0 1-.01-1zm5.71 2.77l.98 3.34c.06.24.42.22.45-.03l.25-1.83c.05-.35.22-.66.48-.9l7.43-6.75c.14-.12-.02-.34-.19-.24l-9 5.42a.87.87 0 0 0-.4 1z"/></defs><use fill="#8d6207" xlink:href="#a" transform="translate(-946 -1825)"/></svg>