<svg xmlns="http://www.w3.org/2000/svg" xmlns:xlink="http://www.w3.org/1999/xlink" width="25" height="16" viewBox="0 0 25 16"><defs><path id="a" d="M1210.09 23.36c-.46-.54-.98-1.03-1.48-1.5l-.54-.51c-.51-.5-.53-.68-.13-1.24.28-.39.58-.78.87-1.15l.78-1.05.06-.07c.49-.67 1-1.37 1.27-2.21.07-.23.15-.55-.02-.83-.17-.27-.5-.35-.73-.4a2.02 2.02 0 0 0-.34-.01h-3.26c-.48 0-.81.22-1 .7-.18.44-.38.91-.6 1.37a11.3 11.3 0 0 1-1.85 2.8l-.04.04c-.1.1-.2.22-.28.22h-.05c-.17-.07-.28-.48-.28-.67v-3.7a.3.3 0 0 0 0-.04c-.08-.6-.27-.97-.95-1.1l-.06-.01h-3.36c-.55 0-.85.22-1.13.55-.08.09-.24.27-.16.5.08.22.34.27.43.28.42.08.65.34.72.78.12.77.13 1.6.05 2.59-.03.28-.08.5-.15.67-.02.05-.09.19-.15.19-.02 0-.08-.01-.2-.09a2.82 2.82 0 0 1-.67-.74 17.37 17.37 0 0 1-1.94-3.56c-.2-.49-.58-.77-1.07-.77a99.52 99.52 0 0 0-2.92 0c-.4 0-.67.12-.8.34-.15.23-.14.52.02.87 1.3 2.85 2.46 4.91 3.8 6.7a9.53 9.53 0 0 0 2.95 2.73 7.7 7.7 0 0 0 4.42.95c.86-.04 1.18-.35 1.22-1.18.02-.43.07-.87.28-1.25.13-.24.26-.24.3-.24.07 0 .17.04.28.1.18.12.35.29.48.43l.37.4c.26.3.54.6.82.89.63.63 1.32.9 2.12.85h2.98c.3-.02.55-.18.7-.45.19-.32.18-.74-.01-1.1-.22-.43-.5-.79-.75-1.08z"/></defs><use fill="#fff" xlink:href="#a" transform="translate(-1188 -12)"/></svg>