<svg xmlns="http://www.w3.org/2000/svg" xmlns:xlink="http://www.w3.org/1999/xlink" width="62" height="74" viewBox="0 0 62 74"><defs><path id="a" d="M970.6 727.6v17.6h-2.2v-1.75l-7.35-7.37a1.1 1.1 0 0 1-.32-.78v-15.4h-2.19v9.9c0 .6-.49 1.1-1.1 1.1h-10.96c-.6 0-1.1-.5-1.1-1.1v-9.9h-2.19v15.4c0 .3-.11.57-.32.78l-7.35 7.37v1.75h-19.73c-.61 0-1.1-.5-1.1-1.1v-13.2c0-.6.49-1.1 1.1-1.1h1.1v-15.33a9.86 9.86 0 0 1-5.49-8.87c0-3.8 2.5-6.89 4.86-8.52a1.1 1.1 0 0 1 1.13-.07c.36.2.59.57.59.98v6.51h6.58v-6.51a1.1 1.1 0 0 1 1.72-.9c2.34 1.62 4.85 4.72 4.85 8.51a9.8 9.8 0 0 1-5.48 8.87v15.33h1.1c.6 0 1.1.5 1.1 1.1v4.4h5.48v-7.7a9.9 9.9 0 0 1 9.86-9.9h3.78a12.11 12.11 0 0 1-7.07-11v-7.11c-2.63-.9-4.38-2.18-4.38-3.89v-2.2c0-8.73 6.79-15.87 15.35-16.44v-2.26h2.19v2.26a16.48 16.48 0 0 1 15.35 16.44v2.2c0 1.7-1.75 2.99-4.39 3.89v7.11c0 4.88-2.9 9.09-7.06 11h3.77a9.9 9.9 0 0 1 9.87 9.9zm-7.67 7.24l5.48 5.5V727.6a7.7 7.7 0 0 0-5.48-7.38zm-33.99-29.24c0-2.02-.99-3.83-2.2-5.18v5.18c0 .6-.48 1.1-1.09 1.1h-8.77c-.6 0-1.1-.5-1.1-1.1v-5.18a7.94 7.94 0 0 0-2.19 5.18 7.67 7.67 0 0 0 4.8 7.13c.41.17.68.58.68 1.02v16.05h4.39v-16.05c0-.45.27-.85.7-1.02a7.6 7.6 0 0 0 4.78-7.13zm-3.29 26.4h-8.77v2.2h2.2v2.2h-2.2v2.2h2.2v2.2h-2.2v2.2h8.77zm7.68 5.5h-5.49v5.5h5.49zm7.67-17.28a7.7 7.7 0 0 0-5.48 7.38v12.74l5.48-5.5zm6.58 8.48h8.77v-8.8h-8.77zm-2.2-47.87a14.35 14.35 0 0 0-6.97 8.27h3.69a3.3 3.3 0 0 0 3.29-3.3zm13.16 0v4.97a3.3 3.3 0 0 0 3.29 3.3h3.69a14.35 14.35 0 0 0-6.98-8.27zm7.67 12.67c0-.75-.07-1.48-.18-2.2h-4.2a5.5 5.5 0 0 1-5.48-5.5v-5.9a14.08 14.08 0 0 0-3.3-.64v12.04h-2.18v-12.04c-1.14.08-2.24.3-3.3.64v5.9a5.5 5.5 0 0 1-5.47 5.5h-4.2a14.4 14.4 0 0 0-.19 2.2v1.1h28.5zm-1.22 3.3h-26.06c1.97 1.03 6.35 2.2 13.03 2.2 6.69 0 11.06-1.17 13.03-2.2zm-3.16 9.9v-6.5c-2.91.68-6.44 1-9.87 1-3.42 0-6.95-.32-9.86-1v6.5a9.9 9.9 0 0 0 9.86 9.9 9.9 9.9 0 0 0 9.87-9.9zm-9.87 5.5a5.5 5.5 0 0 0 5.48-5.5h2.2a7.7 7.7 0 0 1-7.68 7.7zm-5.48 20.9h10.96c.61 0 1.1.5 1.1 1.1v5.5a5.5 5.5 0 0 1-5.48 5.5h-2.2a5.5 5.5 0 0 1-5.47-5.5v-5.5c0-.6.49-1.1 1.1-1.1zm1.1 6.6a3.3 3.3 0 0 0 3.29 3.3h2.19a3.3 3.3 0 0 0 3.29-3.3v-4.4h-8.77z"/></defs><use fill="#035bd7" xlink:href="#a" transform="translate(-910 -673)"/></svg>