<svg xmlns="http://www.w3.org/2000/svg" xmlns:xlink="http://www.w3.org/1999/xlink" width="74" height="74" viewBox="0 0 74 74"><defs><path id="a" d="M689.66 705.64c.72.96 1.54 2.05 1.54 3.36 0 1.3-.82 2.4-1.54 3.36-.48.63-.98 1.3-1.06 1.8l-2.18-.34c.17-1.05.84-1.94 1.48-2.79.54-.72 1.1-1.46 1.1-2.03 0-.57-.56-1.31-1.1-2.03-.64-.86-1.3-1.74-1.47-2.8-.17-1.08.2-2.14.55-3.17.28-.83.58-1.7.41-2.2-.17-.53-.93-1.06-1.66-1.57-.88-.62-1.79-1.26-2.28-2.21-.5-.97-.48-2.1-.46-3.18.02-.88.03-1.8-.29-2.24-.32-.44-1.2-.71-2.05-.97-1.04-.32-2.1-.64-2.87-1.4-.77-.78-1.1-1.84-1.4-2.88-.27-.85-.53-1.73-.98-2.05-.44-.32-1.36-.3-2.24-.3-1.08.03-2.2.04-3.17-.45-.96-.49-1.6-1.4-2.21-2.28-.52-.73-1.05-1.5-1.58-1.66-.5-.17-1.37.13-2.2.41-1.03.36-2.1.72-3.18.55-1.05-.16-1.93-.83-2.79-1.47-.72-.54-1.46-1.1-2.03-1.1-.57 0-1.31.56-2.03 1.1-.85.64-1.74 1.31-2.8 1.47-1.08.17-2.14-.2-3.17-.55-.83-.28-1.7-.58-2.2-.41-.53.17-1.06.93-1.57 1.66-.62.88-1.25 1.79-2.21 2.28-.97.5-2.1.48-3.17.46-.89-.02-1.8-.03-2.25.29-.44.32-.71 1.2-.97 2.05-.32 1.04-.64 2.1-1.4 2.87-.77.77-1.84 1.1-2.87 1.4-.86.27-1.73.54-2.06.98-.32.44-.3 1.36-.3 2.24.03 1.09.05 2.2-.45 3.18-.49.95-1.4 1.59-2.28 2.2-.73.52-1.49 1.05-1.66 1.58-.17.5.13 1.37.41 2.2.36 1.03.73 2.1.56 3.18-.17 1.05-.84 1.93-1.48 2.79-.54.72-1.1 1.46-1.1 2.03 0 .57.56 1.31 1.1 2.03.64.85 1.31 1.74 1.48 2.8l-2.18.33a5.17 5.17 0 0 0-1.06-1.8c-.72-.96-1.54-2.05-1.54-3.36 0-1.3.82-2.4 1.55-3.36.48-.63.97-1.3 1.05-1.8.09-.55-.19-1.35-.45-2.12-.39-1.12-.83-2.4-.44-3.6.4-1.23 1.52-2.01 2.5-2.7.66-.46 1.34-.94 1.58-1.4.25-.49.23-1.33.22-2.14-.02-1.2-.04-2.54.71-3.57.76-1.05 2.05-1.44 3.2-1.79.77-.23 1.57-.48 1.95-.86.37-.38.62-1.18.85-1.95.35-1.14.75-2.43 1.79-3.2 1.03-.75 2.38-.73 3.57-.7.81.01 1.65.03 2.14-.22.47-.24.94-.92 1.4-1.58.69-.98 1.47-2.1 2.7-2.5 1.21-.39 2.48.05 3.6.43.77.27 1.57.55 2.12.46a5.16 5.16 0 0 0 1.8-1.06c.96-.72 2.05-1.54 3.36-1.54 1.3 0 2.4.82 3.35 1.54.64.48 1.3.98 1.81 1.06.55.08 1.35-.19 2.12-.46 1.12-.38 2.4-.82 3.6-.42 1.24.4 2.01 1.5 2.7 2.49a5.2 5.2 0 0 0 1.4 1.58c.49.25 1.33.24 2.14.22 1.19-.02 2.54-.04 3.57.71 1.05.76 1.44 2.05 1.79 3.2.23.77.48 1.57.86 1.95.37.37 1.17.62 1.95.85 1.14.35 2.43.75 3.19 1.79.75 1.03.73 2.38.71 3.57-.01.81-.03 1.65.22 2.14.24.47.92.94 1.58 1.4.98.69 2.1 1.47 2.5 2.7.39 1.21-.05 2.48-.44 3.6a5.27 5.27 0 0 0-.45 2.12c.08.5.58 1.17 1.06 1.8zm-63.36 8.86a3.3 3.3 0 0 1 3.3 3.3v1.1h-2.2v-1.1a1.1 1.1 0 0 0-2.2 0v6.6a1.1 1.1 0 0 0 2.2 0v-1.1h-1.1v-2.2h2.2c.6 0 1.1.5 1.1 1.1v2.2a3.3 3.3 0 0 1-6.6 0v-6.6a3.3 3.3 0 0 1 3.3-3.3zm56.1 11v2.2H678c-.6 0-1.1-.5-1.1-1.1v-11c0-.6.5-1.1 1.1-1.1h4.4v2.2h-3.3v3.3h3.3v2.2h-3.3v3.3zm-38.5-26.4h-1.1v-2.2h2.2c.6 0 1.1.5 1.1 1.1v12.1h-2.2zm-5.5 18.7a3.3 3.3 0 0 1 6.6 0v9.9h-2.2v-2.2h-2.2v2.2h-2.2zm2.2 5.5h2.2v-5.5a1.1 1.1 0 0 0-2.2 0zm-1.4 7.47l1.35-1.74A25.06 25.06 0 0 0 656 734.3c5.64 0 10.98-1.82 15.45-5.27l1.34 1.74A27.24 27.24 0 0 1 656 736.5a27.23 27.23 0 0 1-16.8-5.73zm35.5-22.87h-2.2v-2.2h2.2zm-1.22-7.2l-4.4 8.8-1.97-1 4.4-8.8zm-5.38 2.8h-2.2v-2.2h2.2zm-2.2 11h2.2v12.1a1.1 1.1 0 0 1-2.12.4l-2.28-5.69v6.39h-2.2v-12.1a1.1 1.1 0 0 1 2.12-.4l2.28 5.69zm-6.05-17.6a3.85 3.85 0 0 1 3.85 3.85v5.5a3.85 3.85 0 0 1-7.7 0v-5.5a3.85 3.85 0 0 1 3.85-3.85zm-1.65 9.35a1.65 1.65 0 0 0 3.3 0v-5.5a1.65 1.65 0 0 0-3.3 0zm2.2 11.55v9.9h-2.2v-2.2H656v2.2h-2.2v-9.9a3.3 3.3 0 0 1 6.6 0zm-4.4 0v5.5h2.2v-5.5a1.1 1.1 0 0 0-2.2 0zm-4.95-20.9a3.85 3.85 0 0 1 3.85 3.85v5.5a3.85 3.85 0 0 1-7.7 0v-5.5a3.85 3.85 0 0 1 3.85-3.85zm-1.65 9.35a1.65 1.65 0 0 0 3.3 0v-5.5a1.65 1.65 0 0 0-3.3 0zm-3.3 21.45v-12.1c0-.6.5-1.1 1.1-1.1h1.65a3.85 3.85 0 0 1 .6 7.65l2.68 3.35h.57v2.2h-1.1a1.1 1.1 0 0 1-.86-.41l-2.44-3.05v3.46zm2.75-7.7a1.65 1.65 0 0 0 0-3.3h-.55v3.3zm22.55 7.7v-11h-2.2v-2.2h6.6v2.2h-2.2v11zM628.5 709a27.53 27.53 0 0 1 27.5-27.5 27.53 27.53 0 0 1 27.28 30.94l-2.18-.28A25.33 25.33 0 0 0 656 683.7a25.33 25.33 0 0 0-25.1 28.46l-2.18.28a27.89 27.89 0 0 1-.22-3.44zm8.8 5.5v9.9a3.3 3.3 0 0 1-6.6 0v-9.9h2.2v9.9a1.1 1.1 0 0 0 2.2 0v-9.9zm-5.95 14.87c1.04.32 2.1.64 2.87 1.4.77.77 1.1 1.84 1.4 2.87.27.85.54 1.73.98 2.06.44.32 1.36.3 2.25.29 1.08-.02 2.2-.04 3.17.46.95.49 1.59 1.4 2.2 2.28.52.73 1.05 1.49 1.58 1.66.51.17 1.37-.13 2.2-.42 1.03-.35 2.1-.7 3.18-.55 1.05.17 1.93.84 2.79 1.48.72.54 1.46 1.1 2.03 1.1.57 0 1.31-.56 2.03-1.1.85-.64 1.74-1.3 2.8-1.48 1.07-.16 2.14.2 3.17.55.83.3 1.69.59 2.2.42.53-.17 1.06-.93 1.57-1.66.62-.88 1.26-1.79 2.21-2.28.98-.5 2.1-.48 3.18-.46.88.01 1.8.03 2.24-.3.44-.32.71-1.2.97-2.05.32-1.03.64-2.1 1.4-2.86.77-.77 1.84-1.1 2.87-1.4.85-.27 1.73-.54 2.06-.98l1.78 1.3c-.76 1.03-2.05 1.43-3.2 1.78-.77.23-1.57.48-1.95.86-.38.37-.62 1.18-.86 1.95-.34 1.14-.74 2.43-1.78 3.19-1.04.75-2.39.73-3.57.71a5.19 5.19 0 0 0-2.14.22c-.46.24-.94.92-1.4 1.58-.69.98-1.47 2.1-2.7 2.5-1.2.39-2.48-.05-3.6-.44-.77-.26-1.58-.55-2.12-.45-.5.08-1.17.58-1.8 1.06-.96.72-2.05 1.54-3.36 1.54-1.3 0-2.4-.82-3.36-1.54a5.15 5.15 0 0 0-1.8-1.06c-.55-.1-1.35.19-2.12.45-1.12.4-2.4.82-3.6.43-1.23-.4-2.01-1.5-2.7-2.5-.46-.65-.93-1.33-1.4-1.57-.49-.25-1.33-.23-2.14-.22-1.19.02-2.54.04-3.57-.71-1.04-.76-1.44-2.05-1.79-3.2a5.24 5.24 0 0 0-.86-1.95c-.37-.37-1.17-.62-1.95-.86-1.14-.34-2.43-.74-3.19-1.78l1.78-1.3c.32.45 1.2.72 2.05.98zm52.15-2.77v-11c0-.6.5-1.1 1.1-1.1h4.4v2.2h-3.3v3.3h3.3v2.2h-3.3v3.3h3.3v2.2h-4.4c-.6 0-1.1-.5-1.1-1.1z"/></defs><use fill="#035bd7" xlink:href="#a" transform="translate(-619 -672)"/></svg>