<svg xmlns="http://www.w3.org/2000/svg" xmlns:xlink="http://www.w3.org/1999/xlink" width="75" height="70" viewBox="0 0 75 70"><defs><path id="a" d="M1262.37 742.88h-1.21a7.87 7.87 0 0 1-15.57 0h-22.68a7.87 7.87 0 0 1-15.57 0h-5.72a5.62 5.62 0 0 1-5.62-5.6v-7.84c0-5.18 3.94-9.46 9-10.02v-4.54c0-8.65 7.06-15.68 15.75-15.68h5.62v-2.24h-10.12c-.62 0-1.13-.5-1.13-1.12v-4.48c0-.37.18-.7.48-.92l11.25-7.84.16-.08.08-.04c.12-.05.25-.07.38-.07l.03-.01h34.87c3.1 0 5.63 2.51 5.63 5.6v49.28c0 3.09-2.52 5.6-5.63 5.6zm-36-57.2l-9 6.26v2.78h9zm-11.25 61.68c3.1 0 5.63-2.51 5.63-5.6a5.62 5.62 0 0 0-11.25 0c0 3.09 2.52 5.6 5.62 5.6zm-16.87-11.2h2.25c1.24 0 2.25-1 2.25-2.24 0-1.24-1-2.24-2.25-2.24h-2.25zm28.12-34.72h-5.62c-7.44 0-13.5 6.03-13.5 13.44v5.6c0 .62-.5 1.12-1.13 1.12a7.87 7.87 0 0 0-7.87 7.84h2.25c2.48 0 4.5 2 4.5 4.48a4.5 4.5 0 0 1-4.5 4.48h-2.04a3.37 3.37 0 0 0 3.16 2.24h5.72a7.87 7.87 0 0 1 15.57 0h3.46zm27 45.92c3.1 0 5.63-2.51 5.63-5.6a5.62 5.62 0 0 0-11.25 0c0 3.09 2.52 5.6 5.62 5.6zm12.38-59.36a3.37 3.37 0 0 0-3.38-3.36h-33.75v30.24h37.13zm0 29.12h-37.13v2.24h37.13zm0 4.48h-37.13v5.6h37.13zm0 7.84h-37.13v11.2h16.97a7.87 7.87 0 0 1 15.57 0h1.21c1.87 0 3.38-1.5 3.38-3.36zm-47.25-11.2h4.5v2.24h-4.5zm-7.88-2.24c-.62 0-1.12-.5-1.12-1.12 0-6.18 5.05-11.2 11.25-11.2h2.25c.62 0 1.12.5 1.12 1.12v10.08c0 .62-.5 1.12-1.12 1.12zm11.25-10.08h-1.12a9 9 0 0 0-8.93 7.84h10.05z"/></defs><use fill="#035bd7" xlink:href="#a" transform="translate(-1194 -681)"/></svg>